<svg version="1.2" xmlns="http://www.w3.org/2000/svg" viewBox="0 0 895 96" width="895" height="96">
	<title>New Project</title>
	<style>
		.s0 { fill: #5dfdcb } 
		.s1 { fill: #ffffff } 
		.s2 { fill: none;stroke: #5dfdcb;stroke-miterlimit:100 } 
	</style>
	<path id="Shape 3" class="s0" d="m580 69.5v-1h299.5v-9.5l10 10-10 10v-9.5z"/>
	<path id="Shape 2" class="s0" d="m300 69.5v-1h271v-9.5l10 10-10 10v-9.5z"/>
	<path id="Shape 1" class="s0" d="m5.7 69.1v-1h285.6v-9.5l10 10-10 10v-9.5z"/>
	<path id="All Weather Protocol" class="s1" aria-label="All Weather Protocol"  d="m39.4 41.5l-3.2-8.7-3.2 8.7zm-11.2 6.5l6.6-17.5h2.7l6.7 17.5h-2.5l-1.6-4.5h-7.9l-1.5 4.5zm18.4 0v-18.2h2.2v18.2zm6.7 0v-18.2h2.1v18.2zm17.2 0l-4.3-17.5h2.3l3.7 14.8 3.7-14.8h2.7l3.6 14.8 3.7-14.8h2.4l-4.4 17.5h-3l-3.7-15.2-3.7 15.2zm30.6-7.1v1.1h-9.9q0.2 2.2 1.4 3.4 1.2 1.1 3.3 1.1 1.3 0 2.4-0.3 1.2-0.3 2.3-0.9v2q-1.1 0.5-2.3 0.8-1.3 0.2-2.5 0.2-3.1 0-5-1.8-1.8-1.8-1.8-4.9 0-3.3 1.7-5.1 1.8-1.9 4.7-1.9 2.7 0 4.2 1.7 1.5 1.7 1.5 4.6zm-9.8-0.6h7.7q0-1.8-1-2.9-1-1-2.6-1-1.8 0-2.9 1-1 1-1.2 2.9zm21.5 1.1h-2.1q-2.7 0-3.7 0.6-1 0.6-1 2 0 1.2 0.8 1.9 0.7 0.6 2 0.6 1.8 0 2.9-1.2 1.1-1.3 1.1-3.4zm2.2-0.9v7.5h-2.2v-2q-0.7 1.2-1.8 1.8-1.1 0.5-2.7 0.5-2.1 0-3.3-1.1-1.1-1.1-1.1-3 0-2.3 1.4-3.4 1.5-1.1 4.5-1.1h3v-0.2q0-1.5-1-2.3-1-0.8-2.7-0.8-1.2 0-2.2 0.2-1.1 0.3-2.1 0.8v-1.9q1.2-0.5 2.3-0.7 1.1-0.3 2.2-0.3 2.8 0 4.2 1.5 1.5 1.5 1.5 4.5zm4.4-9.4h2.1v3.8h4.5v1.6h-4.5v7.2q0 1.6 0.5 2 0.4 0.5 1.8 0.5h2.2v1.8h-2.2q-2.5 0-3.5-0.9-0.9-1-0.9-3.4v-7.2h-1.6v-1.6h1.6zm20.3 8.9v7.9h-2.1v-7.8q0-1.9-0.8-2.8-0.7-1-2.1-1-1.8 0-2.8 1.2-1 1.1-1 3v7.4h-2.2v-18.2h2.2v7.1q0.8-1.2 1.8-1.7 1.1-0.6 2.4-0.6 2.3 0 3.5 1.4 1.1 1.4 1.1 4.1zm15.5 0.8v1.1h-9.9q0.2 2.2 1.4 3.4 1.2 1.1 3.3 1.1 1.3 0 2.4-0.3 1.2-0.3 2.3-0.9v2q-1.1 0.5-2.3 0.8-1.3 0.2-2.5 0.2-3.2 0-5-1.8-1.8-1.8-1.8-4.9 0-3.2 1.7-5.1 1.8-1.9 4.7-1.9 2.7 0 4.2 1.7 1.5 1.7 1.5 4.6zm-9.8-0.6h7.7q0-1.8-1-2.9-1-1-2.6-1-1.8 0-2.9 1-1 1-1.2 2.9zm21-5.6v2.2q-0.4-0.2-0.8-0.3-0.4-0.1-0.9-0.1-1.9 0-2.9 1.2-0.9 1.2-0.9 3.4v6.9h-2.2v-13.1h2.2v2q0.6-1.2 1.7-1.7 1.1-0.6 2.7-0.6 0.2 0 0.5 0 0.2 0 0.6 0.1zm15.3-2.2h-3v6.5h3q1.7 0 2.6-0.8 0.9-0.9 0.9-2.5 0-1.5-0.9-2.4-0.9-0.8-2.6-0.8zm-5.3 15.5v-17.5h5.3q3 0 4.5 1.3 1.5 1.4 1.5 3.9 0 2.6-1.5 4-1.5 1.3-4.5 1.3h-3v7zm21.6-13.3v2.2q-0.4-0.2-0.8-0.3-0.4-0.1-0.9-0.1-1.9 0-2.8 1.2-1 1.2-1 3.4v6.9h-2.2v-13.1h2.2v2q0.7-1.2 1.7-1.7 1.1-0.6 2.7-0.6 0.2 0 0.5 0 0.3 0 0.6 0.1zm6.8 1.7q-1.7 0-2.7 1.4-1 1.3-1 3.7 0 2.3 1 3.7 1 1.3 2.7 1.3 1.7 0 2.8-1.3 1-1.4 1-3.7 0-2.4-1-3.7-1.1-1.4-2.8-1.4zm0-1.8q2.8 0 4.4 1.8 1.6 1.8 1.6 5.1 0 3.2-1.6 5-1.6 1.8-4.4 1.8-2.8 0-4.4-1.8-1.6-1.8-1.6-5 0-3.3 1.6-5.1 1.6-1.8 4.4-1.8zm9.6-3.4h2.2v3.7h4.4v1.7h-4.4v7.1q0 1.6 0.4 2 0.4 0.5 1.8 0.5h2.2v1.8h-2.2q-2.5 0-3.5-0.9-0.9-1-0.9-3.4v-7.1h-1.6v-1.7h1.6zm14.5 5.2q-1.7 0-2.7 1.4-1 1.3-1 3.7 0 2.3 1 3.7 1 1.3 2.7 1.3 1.7 0 2.7-1.3 1.1-1.4 1.1-3.7 0-2.3-1.1-3.7-1-1.4-2.7-1.4zm0-1.8q2.8 0 4.4 1.8 1.6 1.8 1.6 5.1 0 3.2-1.6 5-1.6 1.9-4.4 1.9-2.8 0-4.4-1.9-1.6-1.8-1.6-5 0-3.3 1.6-5.1 1.6-1.8 4.4-1.8zm19.1 0.8v2q-1-0.5-1.9-0.7-0.9-0.3-1.8-0.3-2.1 0-3.3 1.4-1.2 1.3-1.2 3.7 0 2.4 1.2 3.7 1.2 1.3 3.3 1.3 0.9 0 1.8-0.2 0.9-0.3 1.9-0.8v2q-0.9 0.5-1.9 0.7-1 0.2-2.1 0.2-2.9 0-4.7-1.9-1.7-1.9-1.7-5 0-3.2 1.7-5.1 1.8-1.8 4.9-1.8 1 0 1.9 0.2 1 0.2 1.9 0.6zm8.8 1q-1.7 0-2.8 1.4-1 1.3-1 3.7 0 2.3 1 3.7 1 1.3 2.8 1.3 1.7 0 2.7-1.3 1-1.4 1-3.7 0-2.3-1-3.7-1-1.4-2.7-1.4zm0-1.8q2.8 0 4.4 1.8 1.6 1.8 1.6 5.1 0 3.2-1.6 5-1.6 1.9-4.4 1.9-2.8 0-4.4-1.9-1.6-1.8-1.6-5 0-3.3 1.6-5.1 1.6-1.8 4.4-1.8zm9.6 13.4v-18.2h2.1v18.2z"/>
	<path id="Trading Orders" class="s1" aria-label="Trading Orders"  d="m348.9 32.5v-2h14.8v2h-6.2v15.5h-2.4v-15.5zm21.1 2.2v2.2q-0.4-0.2-0.8-0.3-0.4-0.1-0.9-0.1-1.9 0-2.8 1.2-1 1.2-1 3.4v6.9h-2.2v-13.1h2.2v2q0.7-1.2 1.8-1.8 1.1-0.5 2.6-0.5 0.2 0 0.5 0 0.3 0 0.6 0.1zm10.4 6.7h-2.2q-2.6 0-3.6 0.6-1 0.6-1 2 0 1.2 0.8 1.9 0.7 0.6 2 0.6 1.8 0 2.9-1.2 1.1-1.3 1.1-3.4zm2.1-0.9v7.5h-2.1v-2q-0.8 1.2-1.9 1.8-1.1 0.5-2.7 0.5-2 0-3.2-1.1-1.1-1.1-1.1-3 0-2.3 1.4-3.4 1.5-1.1 4.5-1.1h3v-0.2q0-1.5-1-2.3-1-0.8-2.7-0.8-1.2 0-2.2 0.2-1.1 0.3-2.1 0.8v-1.9q1.2-0.5 2.3-0.7 1.1-0.3 2.2-0.3 2.8 0 4.2 1.5 1.4 1.5 1.4 4.5zm13.1-3.7v-7.1h2.2v18.3h-2.2v-2q-0.7 1.2-1.7 1.8-1 0.5-2.5 0.5-2.4 0-3.9-1.9-1.5-1.9-1.5-5 0-3.1 1.5-5 1.5-1.9 3.9-1.9 1.5 0 2.5 0.6 1 0.6 1.7 1.7zm-7.3 4.6q0 2.4 0.9 3.8 1 1.3 2.7 1.3 1.7 0 2.7-1.3 1-1.4 1-3.8 0-2.3-1-3.7-1-1.4-2.7-1.4-1.7 0-2.7 1.4-0.9 1.4-0.9 3.7zm13.9 6.6v-13.1h2.2v13.1zm0-15.5v-2.8h2.1v2.8zm17.6 7.6v7.9h-2.2v-7.9q0-1.8-0.7-2.8-0.7-0.9-2.2-0.9-1.7 0-2.7 1.1-1 1.1-1 3.1v7.4h-2.2v-13.1h2.2v2q0.8-1.2 1.8-1.8 1.1-0.6 2.4-0.6 2.3 0 3.4 1.4 1.2 1.4 1.2 4.2zm12.9 1.2q0-2.4-0.9-3.7-1-1.3-2.7-1.3-1.8 0-2.7 1.3-1 1.3-1 3.7 0 2.3 1 3.6 0.9 1.3 2.7 1.3 1.7 0 2.7-1.3 0.9-1.3 0.9-3.6zm2.2-6.4v11.5q0 3.3-1.5 4.9-1.5 1.7-4.5 1.7-1.2 0-2.2-0.2-1-0.2-1.9-0.5v-2.1q0.9 0.5 1.8 0.7 1 0.3 1.9 0.3 2.1 0 3.2-1.1 1-1.1 1-3.4v-1q-0.6 1.1-1.7 1.7-1 0.6-2.5 0.6-2.4 0-3.9-1.9-1.4-1.8-1.4-4.8 0-3.1 1.4-4.9 1.5-1.9 3.9-1.9 1.5 0 2.5 0.6 1.1 0.6 1.7 1.7v-1.9zm19.3-2.8q-2.6 0-4.1 1.9-1.5 1.9-1.5 5.2 0 3.4 1.5 5.3 1.5 1.9 4.1 1.9 2.6 0 4.1-1.9 1.5-1.9 1.5-5.3 0-3.3-1.5-5.2-1.5-1.9-4.1-1.9zm0-1.9q3.7 0 5.9 2.4 2.2 2.5 2.2 6.6 0 4.2-2.2 6.7-2.2 2.4-5.9 2.4-3.7 0-5.9-2.4-2.2-2.5-2.2-6.7 0-4.1 2.2-6.6 2.2-2.4 5.9-2.4zm19.3 4.5v2.2q-0.4-0.2-0.8-0.3-0.4-0.1-0.9-0.1-1.9 0-2.8 1.2-1 1.1-1 3.4v6.9h-2.2v-13.1h2.2v2q0.7-1.2 1.8-1.8 1-0.6 2.6-0.6 0.2 0 0.5 0.1 0.3 0 0.6 0.1zm10.5 2.1v-7.1h2.1v18.3h-2.1v-2q-0.7 1.2-1.7 1.8-1.1 0.5-2.5 0.5-2.4 0-3.9-1.9-1.5-1.9-1.5-5 0-3.1 1.5-5 1.5-1.9 3.9-1.9 1.4 0 2.5 0.6 1 0.6 1.7 1.7zm-7.4 4.6q0 2.4 1 3.8 1 1.3 2.7 1.3 1.7 0 2.7-1.3 1-1.4 1-3.8 0-2.3-1-3.7-1-1.4-2.7-1.4-1.7 0-2.7 1.4-1 1.4-1 3.7zm25.2-0.5v1h-9.9q0.1 2.3 1.3 3.4 1.2 1.2 3.4 1.2 1.2 0 2.4-0.3 1.2-0.3 2.3-0.9v2q-1.2 0.5-2.4 0.8-1.2 0.2-2.4 0.2-3.2 0-5-1.8-1.9-1.8-1.9-5 0-3.2 1.8-5.1 1.7-1.9 4.7-1.9 2.6 0 4.2 1.7 1.5 1.7 1.5 4.7zm-9.8-0.6l7.7-0.1q-0.1-1.7-1-2.8-1-1-2.6-1-1.8 0-2.9 1-1.1 1-1.2 2.9zm20.9-5.6l0.1 2.2q-0.4-0.2-0.8-0.3-0.5-0.1-1-0.1-1.8 0-2.8 1.2-1 1.1-1 3.4v6.9h-2.1v-13.1h2.1v2q0.7-1.2 1.8-1.8 1.1-0.6 2.7-0.6 0.2 0 0.4 0.1 0.3 0 0.6 0.1zm10.7 0.5v2.1q-0.9-0.5-1.9-0.7-1-0.3-2.1-0.3-1.6 0-2.4 0.5-0.8 0.5-0.8 1.5 0 0.8 0.6 1.2 0.6 0.4 2.3 0.8l0.8 0.2q2.3 0.5 3.2 1.4 1 0.9 1 2.5 0 1.8-1.5 2.9-1.4 1-3.9 1-1.1 0-2.2-0.2-1.2-0.2-2.4-0.6v-2.2q1.2 0.6 2.3 0.9 1.2 0.3 2.3 0.3 1.5 0 2.4-0.5 0.8-0.5 0.8-1.5 0-0.9-0.6-1.3-0.6-0.5-2.6-0.9l-0.8-0.2q-2-0.4-2.9-1.3-0.9-0.9-0.9-2.4 0-1.8 1.4-2.9 1.3-1 3.7-1 1.2 0 2.2 0.2 1.1 0.2 2 0.5z"/>
	<path id="Your Own AA Wallet" class="s1" aria-label="Your Own AA Wallet"  d="m617.1 38.7l-6.1-9.2h2.5l4.8 7.2 4.9-7.2h2.5l-6.2 9.2v8.3h-2.4zm12.7-3.3q-1.7 0-2.7 1.4-1 1.3-1 3.7 0 2.3 1 3.7 1 1.3 2.7 1.3 1.7 0 2.8-1.3 1-1.4 1-3.7 0-2.4-1-3.7-1.1-1.4-2.8-1.4zm0-1.8q2.8 0 4.4 1.8 1.6 1.8 1.6 5.1 0 3.2-1.6 5-1.6 1.9-4.4 1.9-2.8 0-4.4-1.9-1.6-1.8-1.6-5 0-3.3 1.6-5.1 1.6-1.8 4.4-1.8zm9.4 8.3v-8h2.2v7.9q0 1.8 0.7 2.8 0.7 0.9 2.2 0.9 1.7 0 2.7-1.1 1-1.1 1-3.1v-7.4h2.2v13.1h-2.2v-2q-0.8 1.2-1.8 1.8-1 0.6-2.4 0.6-2.3 0-3.4-1.4-1.2-1.4-1.2-4.1zm5.4-8.3zm17.6 0.1v2.2q-0.3-0.2-0.8-0.3-0.4-0.1-0.9-0.1-1.8 0-2.8 1.2-1 1.2-1 3.4v6.9h-2.2v-13.1h2.2v2q0.7-1.1 1.8-1.7 1.1-0.6 2.6-0.6 0.3 0 0.5 0 0.3 0 0.6 0.1zm17.1-2.6q-2.6 0-4.1 2-1.5 1.9-1.5 5.2 0 3.3 1.5 5.2 1.5 1.9 4.1 1.9 2.6 0 4.1-1.9 1.5-1.9 1.5-5.2 0-3.3-1.5-5.2-1.5-2-4.1-2zm0-1.9q3.7 0 5.9 2.5 2.2 2.5 2.2 6.6 0 4.1-2.2 6.6-2.2 2.5-5.9 2.5-3.7 0-5.9-2.5-2.2-2.5-2.2-6.6 0-4.1 2.2-6.6 2.2-2.5 5.9-2.5zm13.9 17.8l-3.4-13.1h2.1l2.7 10.2 2.7-10.2h2.5l2.7 10.2 2.7-10.2h2.2l-3.5 13.1h-2.5l-2.8-10.7-2.9 10.7zm28.4-7.9v7.9h-2.2v-7.8q0-1.9-0.7-2.8-0.7-0.9-2.2-0.9-1.7 0-2.7 1.1-1 1.1-1 3v7.4h-2.2v-13.1h2.2v2q0.7-1.1 1.8-1.7 1-0.6 2.4-0.6 2.3 0 3.4 1.4 1.2 1.4 1.2 4.1zm21.1 1.5l-3.2-8.7-3.2 8.7zm-11.3 6.4l6.7-17.5h2.7l6.7 17.5h-2.5l-1.6-4.5h-7.9l-1.6 4.5zm28.3-6.4l-3.2-8.7-3.2 8.7zm-11.2 6.4l6.6-17.5h2.7l6.7 17.5h-2.5l-1.6-4.5h-7.8l-1.6 4.5zm29 0l-4.4-17.5h2.4l3.7 14.8 3.7-14.8h2.6l3.7 14.8 3.7-14.8h2.4l-4.4 17.5h-3l-3.7-15.2-3.7 15.2zm27.4-6.6h-2.2q-2.6 0-3.6 0.6-1 0.6-1 2.1 0 1.1 0.7 1.8 0.8 0.7 2.1 0.7 1.8 0 2.9-1.3 1.1-1.3 1.1-3.4zm2.1-0.9v7.5h-2.1v-2q-0.8 1.2-1.9 1.8-1.1 0.6-2.7 0.6-2 0-3.2-1.2-1.2-1.1-1.2-3 0-2.2 1.5-3.3 1.5-1.2 4.4-1.2h3.1v-0.2q0-1.5-1-2.3-1-0.8-2.8-0.8-1.1 0-2.2 0.3-1 0.2-2 0.8v-2q1.2-0.5 2.3-0.7 1.1-0.2 2.2-0.2 2.8 0 4.2 1.4 1.4 1.5 1.4 4.5zm4.5 7.5v-18.2h2.1v18.2zm6.7 0v-18.2h2.1v18.2zm17.9-7.1v1.1h-9.9q0.2 2.2 1.4 3.4 1.2 1.1 3.3 1.1 1.3 0 2.4-0.3 1.2-0.3 2.3-0.9v2q-1.1 0.5-2.3 0.8-1.3 0.3-2.5 0.3-3.2 0-5-1.9-1.8-1.8-1.8-4.9 0-3.2 1.7-5.1 1.8-1.9 4.7-1.9 2.7 0 4.2 1.7 1.5 1.7 1.5 4.6zm-9.8-0.6h7.7q0-1.8-1-2.8-1-1.1-2.6-1.1-1.8 0-2.9 1-1 1-1.2 2.9zm13.3-9.1h2.2v3.7h4.5v1.7h-4.5v7.1q0 1.6 0.4 2.1 0.5 0.4 1.8 0.4h2.3v1.8h-2.3q-2.5 0-3.4-0.9-1-1-1-3.4v-7.1h-1.5v-1.7h1.5z"/>
	<path id="Shape 4" class="s2" d="m612 17h232c8.3 0 15 6.7 15 15v12c0 8.3-6.7 15-15 15h-232c-8.3 0-15-6.7-15-15v-12c0-8.3 6.7-15 15-15z"/>
</svg>