<svg width="32" height="32" viewBox="0 0 32 32" fill="none" xmlns="http://www.w3.org/2000/svg">
<g clip-path="url(#clip0_677_2637)">
<mask id="mask0_677_2637" style="mask-type:luminance" maskUnits="userSpaceOnUse" x="0" y="0" width="32" height="32">
<path d="M32 0H0V32H32V0Z" fill="white"/>
</mask>
<g mask="url(#mask0_677_2637)">
<path d="M16 32C24.8366 32 32 24.8366 32 16C32 7.16344 24.8366 0 16 0C7.16344 0 0 7.16344 0 16C0 24.8366 7.16344 32 16 32Z" fill="#00D2FF"/>
<path d="M27.9957 14.5323C27.9957 14.4893 27.2048 13.9885 26.789 13.7272C26.6093 13.6154 26.4424 13.4844 26.2914 13.3367C25.9798 13.0315 25.4611 12.4979 25.2928 12.1695C25.1845 11.9596 25.229 11.582 25.3133 11.2217C25.4594 10.589 25.3486 9.92473 25.0051 9.37224L24.464 8.49859C24.215 8.10003 24.0147 7.67348 23.8675 7.22796C23.6805 6.65548 23.3552 6.13697 22.92 5.71755C22.0395 4.86611 19.6029 4.44691 17.5787 4.38003C17.4538 4.34259 17.3266 4.31259 17.1979 4.29019C16.2968 4.13806 15.3352 3.89225 14.4726 4.05187C13.192 4.28827 11.8973 4.6862 10.9309 5.66804C10.7361 5.86628 10.4317 5.95974 10.2217 6.14761C9.80554 6.51996 9.24514 6.51996 8.87543 6.93336C8.65893 7.17483 8.55882 7.96228 7.99136 8.26291C7.05274 8.76155 6.35815 9.31091 6.13067 9.59102C5.95874 9.80182 5.82552 10.0484 5.65821 10.2638C5.48773 10.4847 4.67891 10.8587 4.44389 11.0927C4.20887 11.3267 3.89371 11.8961 4.03522 12.5689C4.04837 12.6302 4.05957 12.6809 4.06762 12.7219C4.16016 13.0639 4.41175 13.6837 4.35354 13.9679C4.28583 14.3043 3.41296 16.812 5.36327 17.4805C5.76927 17.6197 5.9412 17.8909 5.98552 18.3038C6.01987 18.612 6.11218 18.928 6.27413 19.2683C6.45167 19.6394 6.80115 19.8413 6.82965 19.8659C6.94728 19.9688 7.49477 20.5354 7.53983 20.6179C8.23175 21.8859 8.03739 22.5195 9.36179 22.9502C9.70207 23.0616 10.0288 23.2102 10.336 23.3931C10.7102 23.6165 11.1111 23.7926 11.5293 23.9176C11.5415 23.921 11.56 23.9275 11.5817 23.9352C11.8759 23.2304 12.1743 22.5618 12.4716 21.9325C10.0876 19.5086 10.7144 16.793 10.9431 16.0646C10.9499 16.043 10.962 16.0235 10.9784 16.0077C10.9947 15.992 11.0148 15.9805 11.0368 15.9744C11.0587 15.9683 11.0819 15.9678 11.1041 15.9728C11.1263 15.9779 11.1469 15.9884 11.164 16.0034C11.6643 16.4379 13.1855 18.0059 13.0069 20.8362C13.533 19.7944 14.0447 18.8782 14.512 18.0962C12.7916 15.2053 14.0737 12.6712 14.4777 12.0031C14.4896 11.9834 14.5063 11.967 14.5263 11.9554C14.5463 11.9438 14.5689 11.9374 14.592 11.9368C14.6152 11.9362 14.6381 11.9413 14.6587 11.9518C14.6793 11.9623 14.6969 11.9778 14.7098 11.9968C15.0605 12.5131 16.0134 14.2056 15.4234 16.644C15.8513 15.9954 16.1986 15.5153 16.4256 15.214C17.0403 11.1833 20.1104 9.86073 20.9173 9.58038C20.9389 9.57275 20.9621 9.57064 20.9848 9.57424C21.0074 9.57784 21.0288 9.58704 21.0469 9.60099C21.0651 9.61494 21.0794 9.63321 21.0885 9.65408C21.0976 9.67496 21.1013 9.69779 21.0992 9.72044C21.0246 10.554 20.5064 13.7637 16.9453 15.412C16.5174 15.971 16.1051 16.5595 15.7108 17.1632C17.0725 16.1093 18.9808 15.6126 20.5664 15.9942C20.5886 15.9992 20.6094 16.0098 20.6267 16.0248C20.644 16.0398 20.6571 16.0589 20.6651 16.0802C20.6731 16.1016 20.6755 16.1245 20.6723 16.147C20.6691 16.1696 20.6603 16.191 20.6467 16.2093C20.1907 16.8077 18.3776 18.8259 14.9624 18.3635C14.3852 19.3282 13.8562 20.3056 13.3866 21.2406C14.8613 20.1342 17.0165 19.7104 18.6886 20.2675C18.7109 20.2746 18.731 20.287 18.747 20.3038C18.7632 20.3206 18.7749 20.3411 18.781 20.3635C18.787 20.3859 18.7872 20.4094 18.7818 20.432C18.7763 20.4546 18.7651 20.4754 18.7494 20.4926C18.2302 21.048 16.2307 22.8656 12.9434 22.1437C12.6353 22.7894 12.1757 23.8512 11.9514 24.376C11.8742 24.5563 11.8031 24.7381 11.74 24.9243C11.5939 25.3517 11.399 25.885 11.165 26.4182C11.1321 26.4944 11.1153 26.5763 11.1156 26.6592C11.116 26.7419 11.1336 26.8237 11.1672 26.8995C11.2008 26.9754 11.2498 27.0434 11.3111 27.0997C11.3724 27.1558 11.4447 27.1989 11.5235 27.2262C14.1176 28.1446 16.9342 28.2482 19.5898 27.5226C19.6774 27.4981 19.7586 27.4541 19.8267 27.3941C19.895 27.3341 19.9486 27.2595 19.9838 27.176C20.039 27.0459 20.0936 26.9227 20.0936 26.9227C20.0936 26.9227 21.2402 24.2821 21.4088 23.1317C21.4752 22.6794 21.6077 22.34 21.7443 22.0933C21.8339 21.932 21.9635 21.7958 22.1206 21.6979C22.2779 21.6 22.4578 21.5434 22.6432 21.5333C23.5171 21.4874 25.3778 21.3664 26.0546 21.1538C26.9542 20.8704 26.5642 19.2461 26.5158 19.0707C26.4677 18.8955 26.9486 18.4886 27.0478 18.251C27.1469 18.0133 26.8043 17.932 26.6646 17.6714C26.5251 17.4109 27.0117 17.223 27.0811 16.9864C27.1506 16.7498 26.9229 16.4894 26.8306 16.3144C26.7382 16.1394 26.7029 15.9203 26.7029 15.9203C26.7029 15.9203 27.3605 15.4424 27.7107 15.1408C28.061 14.8392 27.9954 14.5907 27.9947 14.532" fill="black"/>
</g>
</g>
<defs>
<clipPath id="clip0_677_2637">
<rect width="32" height="32" fill="white"/>
</clipPath>
</defs>
</svg>
